# xmcd
#
# Track frame offsets: 
#        150
#        22972
#        40610
#        57700
#        78165
#        100157
#        119015
#        137945
#        157905
#        174032
#
# Disc length: 2661 seconds
#
# Revision: 3
# Processed by: cddbd v1.5.2PL0 Copyright (c) Steve Scherf et al.
# Submitted via: ExactAudioCopy v1.1
#
DISCID=760a630a
DTITLE=金城武 - 標準情人
DYEAR=1994
DGENRE=Pop
TTITLE0=珍惜我的真心
TTITLE1=標準情人
TTITLE2=不願是妳的煩惱
TTITLE3=Tell Laura I Love Her
TTITLE4=讓我對妳說
TTITLE5=純情的眼淚
TTITLE6=藍色的微笑
TTITLE7=勇敢的說再見
TTITLE8=落葉的季節
TTITLE9=沒有愛情的晚上
EXTD=RORMUSIC YEAR: 1994
EXTT0=
EXTT1=
EXTT2=
EXTT3=
EXTT4=
EXTT5=
EXTT6=
EXTT7=
EXTT8=
EXTT9=
PLAYORDER=
